<?xml version="1.0" encoding="UTF-8"?>
<svg width="128pt" height="128pt" version="1.1" viewBox="0 0 128 128" xmlns="http://www.w3.org/2000/svg">
 <g>
  <path d="m56.648 120-1.707-3.8906 6.375-2.8008-4.8477-12.594 3.9609-1.5273 6.3047 16.383z"/>
  <path d="m64.598 112.39 13.008 3.6133-1.1367 4.0938-13.008-3.6133z"/>
  <path d="m110.04 8.0078c-4.2773 0-8.5977 2.2188-12.848 6.5898-4.1328 4.2578-7.3633 8.3789-10.211 12.012-7.6523 9.7656-13.691 17.48-29.691 17.48-3.7031 0-7.8125-0.39453-12.578-1.207-10.676-1.8242-19.438-6.4805-26.035-13.844-3.9688-4.4961-6.293-5.168-7.3242-5.168-1.6797 0-2.8164 2-3.4844 3.7305-0.20703 0.92188-1.7578 8.7734 3.0117 16.277 2.1133 3.207 4.2891 5.5 6.4375 6.7734 0.91797 0.54297 3.0625 1.8164 2.7656 3.8867-0.29297 2.0469-2.3789 2.5859-4.5898 3.1562-0.96094 0.24609-3.1797 0.82031-3.5938 1.3594 0.003907 0.007812 0.011719 0.023437 0.019531 0.046874 0.15234 0.30469 0.30859 0.60547 0.47266 0.90625l0.074219 0.14063c3.2578 6.0078 7.8867 11.051 13.758 14.977l0.56641 0.37891 0.24219 0.64062c0.26172 0.6875 6.7227 17.039 28.094 19.449l2.5078 0.28516-1.4727 5.0508c-0.41016 1.4062 0.40234 2.8828 1.8086 3.2891 1.3906 0.40625 2.8945-0.4375 3.2891-1.8047l1.918-6.582 1.4688-0.11328c1.8828-0.14453 3.6445-0.35156 5.3867-0.63281 32.773-5.3438 35.02-41.988 35.113-43.863-0.078125-1.8203-0.73047-22.523 8.1797-31.863 2.6914-2.8242 5.9727-4.3555 9.7695-4.5703-2.8242-3.0117-7.4648-6.7812-13.055-6.7812zm-48.906 71.281c-0.59766 0.027344-1.418 0.050782-2.3828 0.050782-4.8008 0-13.16-0.61719-15.094-4.7891-0.70703-1.5195-0.54297-3.1719 0.48047-4.9297-3.5352-2.0977-9.4062-6.3125-8.6875-10.852 0.75-4.7578 7.6484-6.3594 12.77-7.1484l0.64844 4.1992c-8.6172 1.332-9.1836 3.3828-9.2227 3.6133-0.28125 1.7773 4.3164 5.4414 8.6133 7.6133l2.5117 1.2695-1.9062 2.0703c-1.1992 1.3008-1.4648 2.1367-1.3516 2.3789 0.67969 1.4688 7.0586 2.5586 13.371 2.2852 29.672-2.2188 30.727-28.926 30.758-30.062l4.2461 0.11328c-0.007812 0.31641-1.2344 31.684-34.754 34.188zm49.758-65.309c-0.95312 0-1.7266-0.77344-1.7266-1.7266s0.77344-1.7266 1.7266-1.7266 1.7266 0.77344 1.7266 1.7266-0.77344 1.7266-1.7266 1.7266z"/>
 </g>
</svg>
